<svg width="256" height="256" viewBox="0 0 256 256" fill="none" xmlns="http://www.w3.org/2000/svg">
<rect width="32" height="32" fill="#383D44"/>
<rect width="32" height="32" transform="matrix(-1 0 0 1 256 128)" fill="#383D44"/>
<rect width="32" height="32" transform="matrix(1 0 0 -1 128 128)" fill="#383D44"/>
<rect x="128" y="256" width="32" height="32" transform="rotate(180 128 256)" fill="#383D44"/>
<rect y="32" width="32" height="32" fill="#D9D9D9"/>
<rect width="32" height="32" transform="matrix(-1 0 0 1 256 160)" fill="#D9D9D9"/>
<rect width="32" height="32" transform="matrix(1 0 0 -1 128 96)" fill="#D9D9D9"/>
<rect x="128" y="224" width="32" height="32" transform="rotate(180 128 224)" fill="#D9D9D9"/>
<rect y="64" width="32" height="32" fill="#E9EAEA"/>
<rect width="32" height="32" transform="matrix(-1 0 0 1 256 192)" fill="#E9EAEA"/>
<rect width="32" height="32" transform="matrix(1 0 0 -1 128 64)" fill="#E9EAEA"/>
<rect x="128" y="192" width="32" height="32" transform="rotate(180 128 192)" fill="#E9EAEA"/>
<rect y="96" width="32" height="32" fill="#D9D9D9"/>
<rect width="32" height="32" transform="matrix(-1 0 0 1 256 224)" fill="#D9D9D9"/>
<rect width="32" height="32" transform="matrix(1 0 0 -1 128 32)" fill="#D9D9D9"/>
<rect x="128" y="160" width="32" height="32" transform="rotate(180 128 160)" fill="#D9D9D9"/>
<rect x="32" width="32" height="32" fill="black"/>
<rect width="32" height="32" transform="matrix(-1 0 0 1 224 128)" fill="black"/>
<rect width="32" height="32" transform="matrix(1 0 0 -1 160 128)" fill="black"/>
<rect x="96" y="256" width="32" height="32" transform="rotate(180 96 256)" fill="black"/>
<rect x="32" y="32" width="32" height="32" fill="#9FA1A4"/>
<rect width="32" height="32" transform="matrix(-1 0 0 1 224 160)" fill="#9FA1A4"/>
<rect width="32" height="32" transform="matrix(1 0 0 -1 160 96)" fill="#9FA1A4"/>
<rect x="96" y="224" width="32" height="32" transform="rotate(180 96 224)" fill="#9FA1A4"/>
<rect x="64" y="64" width="32" height="32" fill="#383D44"/>
<rect width="32" height="32" transform="matrix(-1 0 0 1 192 192)" fill="#383D44"/>
<rect width="32" height="32" transform="matrix(1 0 0 -1 192 64)" fill="#383D44"/>
<rect x="64" y="192" width="32" height="32" transform="rotate(180 64 192)" fill="#383D44"/>
<rect x="32" y="96" width="32" height="32" fill="black"/>
<rect width="32" height="32" transform="matrix(-1 0 0 1 224 224)" fill="black"/>
<rect width="32" height="32" transform="matrix(1 0 0 -1 160 32)" fill="black"/>
<rect x="96" y="160" width="32" height="32" transform="rotate(180 96 160)" fill="black"/>
<rect x="64" width="32" height="32" fill="#D9D9D9"/>
<rect width="32" height="32" transform="matrix(-1 0 0 1 192 128)" fill="#D9D9D9"/>
<rect width="32" height="32" transform="matrix(1 0 0 -1 192 128)" fill="#D9D9D9"/>
<rect x="64" y="256" width="32" height="32" transform="rotate(180 64 256)" fill="#D9D9D9"/>
<rect x="64" y="32" width="32" height="32" fill="#E9EAEA"/>
<rect width="32" height="32" transform="matrix(-1 0 0 1 192 160)" fill="#E9EAEA"/>
<rect width="32" height="32" transform="matrix(1 0 0 -1 192 96)" fill="#E9EAEA"/>
<rect x="64" y="224" width="32" height="32" transform="rotate(180 64 224)" fill="#E9EAEA"/>
<rect x="32" y="64" width="32" height="32" fill="#CCCDCE"/>
<rect width="32" height="32" transform="matrix(-1 0 0 1 224 192)" fill="#CCCDCE"/>
<rect width="32" height="32" transform="matrix(1 0 0 -1 160 64)" fill="#CCCDCE"/>
<rect x="96" y="192" width="32" height="32" transform="rotate(180 96 192)" fill="#CCCDCE"/>
<rect x="64" y="96" width="32" height="32" fill="#E9EAEA"/>
<rect width="32" height="32" transform="matrix(-1 0 0 1 192 224)" fill="#E9EAEA"/>
<rect width="32" height="32" transform="matrix(1 0 0 -1 192 32)" fill="#E9EAEA"/>
<rect x="64" y="160" width="32" height="32" transform="rotate(180 64 160)" fill="#E9EAEA"/>
<rect x="96" width="32" height="32" fill="#E9EAEA"/>
<rect width="32" height="32" transform="matrix(-1 0 0 1 160 128)" fill="#E9EAEA"/>
<rect width="32" height="32" transform="matrix(1 0 0 -1 224 128)" fill="#E9EAEA"/>
<rect x="32" y="256" width="32" height="32" transform="rotate(180 32 256)" fill="#E9EAEA"/>
<rect x="96" y="32" width="32" height="32" fill="black"/>
<rect width="32" height="32" transform="matrix(-1 0 0 1 160 160)" fill="black"/>
<rect width="32" height="32" transform="matrix(1 0 0 -1 224 96)" fill="black"/>
<rect x="32" y="224" width="32" height="32" transform="rotate(180 32 224)" fill="black"/>
<rect x="96" y="64" width="32" height="32" fill="#7A7C7F"/>
<rect width="32" height="32" transform="matrix(-1 0 0 1 160 192)" fill="#7A7C7F"/>
<rect width="32" height="32" transform="matrix(1 0 0 -1 224 64)" fill="#7A7C7F"/>
<rect x="32" y="192" width="32" height="32" transform="rotate(180 32 192)" fill="#7A7C7F"/>
<rect x="96" y="96" width="32" height="32" fill="#383D44"/>
<rect width="32" height="32" transform="matrix(-1 0 0 1 160 224)" fill="#383D44"/>
<rect width="32" height="32" transform="matrix(1 0 0 -1 224 32)" fill="#383D44"/>
<rect x="32" y="160" width="32" height="32" transform="rotate(180 32 160)" fill="#383D44"/>
</svg>
